<svg xmlns="http://www.w3.org/2000/svg" width="27.661" height="27.661" viewBox="0 0 27.661 27.661"><path d="M11.681,15.485a1.729,1.729,0,1,0,1.729,1.729A1.729,1.729,0,0,0,11.681,15.485Zm8.3,0a1.729,1.729,0,1,0,1.729,1.729A1.729,1.729,0,0,0,19.979,15.485ZM15.83,2a13.83,13.83,0,1,0,13.83,13.83A13.835,13.835,0,0,0,15.83,2Zm0,24.895A11.079,11.079,0,0,1,4.766,15.83a11.213,11.213,0,0,1,.069-1.189,13.916,13.916,0,0,0,7.206-7.427,13.794,13.794,0,0,0,11.286,5.85,13.5,13.5,0,0,0,3.112-.36A11.047,11.047,0,0,1,15.83,26.895Z" transform="translate(-2 -2)" fill="#fff"/></svg>