<svg xmlns="http://www.w3.org/2000/svg" width="39.972" height="21.803" viewBox="0 0 39.972 21.803"><path d="M40.972,9.634a3.644,3.644,0,0,1-3.634,3.634,3.088,3.088,0,0,1-.927-.127l-6.468,6.45a3.209,3.209,0,0,1,.127.945,3.634,3.634,0,1,1-7.268,0,3.21,3.21,0,0,1,.127-.945L18.3,14.957a3.573,3.573,0,0,1-1.89,0L8.14,23.242a3.088,3.088,0,0,1,.127.927,3.634,3.634,0,1,1-3.634-3.634,3.088,3.088,0,0,1,.927.127L13.846,12.4a3.21,3.21,0,0,1-.127-.945,3.634,3.634,0,0,1,7.268,0,3.209,3.209,0,0,1-.127.945l4.633,4.633a3.573,3.573,0,0,1,1.89,0l6.45-6.468a3.088,3.088,0,0,1-.127-.927,3.634,3.634,0,1,1,7.268,0Z" transform="translate(-1 -6)" fill="#fff"/></svg>