<svg xmlns="http://www.w3.org/2000/svg" width="42.789" height="25.661" viewBox="0 0 42.789 25.661"><path d="M37.954,10.415H32.119V4H4.89C2.75,4,1,5.443,1,7.208V24.849H4.89c0,2.662,2.606,4.811,5.835,4.811s5.835-2.149,5.835-4.811h11.67c0,2.662,2.606,4.811,5.835,4.811S39.9,27.512,39.9,24.849h3.89V16.83ZM10.725,27.255a2.7,2.7,0,0,1-2.917-2.406,2.7,2.7,0,0,1,2.917-2.406,2.7,2.7,0,0,1,2.917,2.406A2.7,2.7,0,0,1,10.725,27.255ZM36.982,12.821l3.812,4.009H32.119V12.821ZM34.064,27.255a2.7,2.7,0,0,1-2.917-2.406,2.7,2.7,0,0,1,2.917-2.406,2.7,2.7,0,0,1,2.917,2.406A2.7,2.7,0,0,1,34.064,27.255Z" transform="translate(-1 -4)" fill="#fff"/></svg>